<svg width="153" height="75" viewBox="0 0 153 75" fill="none" xmlns="http://www.w3.org/2000/svg">
<path fill-rule="evenodd" clip-rule="evenodd" d="M72.6854 28.2974C73.0519 27.9308 73.6462 27.9308 74.0127 28.2974L79.6442 33.9288C79.9126 34.1973 79.9929 34.6009 79.8476 34.9517C79.7024 35.3024 79.3601 35.5311 78.9805 35.5311H55.829C55.3106 35.5311 54.8904 35.1109 54.8904 34.5925C54.8904 34.0741 55.3106 33.6539 55.829 33.6539H76.7146L72.6854 29.6247C72.3188 29.2582 72.3188 28.6639 72.6854 28.2974Z" fill="white"/>
<path fill-rule="evenodd" clip-rule="evenodd" d="M62.1242 46.2065C61.7577 46.5731 61.1634 46.5731 60.7969 46.2065L55.1654 40.5751C54.897 40.3067 54.8167 39.903 54.9619 39.5522C55.1072 39.2015 55.4495 38.9728 55.8291 38.9728L78.9806 38.9728C79.499 38.9728 79.9192 39.3931 79.9192 39.9114C79.9192 40.4298 79.499 40.85 78.9806 40.85L58.095 40.85L62.1242 44.8792C62.4907 45.2457 62.4907 45.84 62.1242 46.2065Z" fill="white"/>
<path fill-rule="evenodd" clip-rule="evenodd" d="M21.9525 48.7913L21.9525 4.87988L24.8799 4.87988L24.8799 48.7913L21.9525 48.7913Z" fill="white"/>
<path fill-rule="evenodd" clip-rule="evenodd" d="M21.9525 71.2346L21.9525 57.5732L24.8799 57.5732L24.8799 71.2346L21.9525 71.2346Z" fill="white"/>
<path fill-rule="evenodd" clip-rule="evenodd" d="M24.3838 57.9611C23.9138 58.2758 23.3512 58.4559 22.7552 58.4559H22.746C22.1495 58.4559 21.5864 58.2755 21.1162 57.9603L10.329 51.5881L22.7533 69.1034L35.1932 51.5828L24.3838 57.9611ZM22.7506 55.5257L0 42.0867L22.7521 74.1616L45.5259 42.0867L22.7506 55.5257ZM0.339908 37.7699L23.0982 51.224L45.8566 37.7822L23.1013 0L0.339908 37.7699ZM4.37106 36.7523L23.0989 47.8237L41.8255 36.7632L23.1006 5.67287L4.37106 36.7523Z" fill="white"/>
<path fill-rule="evenodd" clip-rule="evenodd" d="M108.065 37.4908C109.379 41.3477 109.883 47.1462 107.835 50.7636C111.29 48.9171 113.286 44.5312 113.286 44.5312C112.789 52.1944 104.242 58.6504 105.071 62.9205C102.949 59.3555 103.152 52.2252 103.152 52.2252C100.465 57.0724 101.079 61.9201 101.079 61.9201C95.7815 49.1475 108.066 37.4908 108.066 37.4908M130.676 37.4908C129.362 41.3477 128.858 47.1462 130.906 50.7636C127.451 48.9171 125.455 44.5312 125.455 44.5312C125.952 52.1944 134.499 58.6504 133.67 62.9205C135.792 59.3555 135.589 52.2252 135.589 52.2252C138.276 57.0724 137.662 61.9201 137.662 61.9201C142.959 49.1475 130.675 37.4908 130.675 37.4908H130.676ZM119.371 68.6141C116.319 68.4602 116.05 64.3821 116.05 64.3821C115.397 66.7672 116.05 68.3063 116.05 68.3063C110.522 60.8427 116.165 53.2641 116.165 53.2641C115.436 57.3422 116.895 58.4576 116.895 58.4576C116.703 54.7642 119.371 51.9174 119.371 51.9174C119.371 51.9174 122.039 54.7642 121.847 58.4576C121.847 58.4576 123.305 57.3417 122.576 53.2641C122.576 53.2641 128.219 60.8427 122.691 68.3063C122.691 68.3063 123.344 66.7677 122.691 64.3821C122.691 64.3821 122.423 68.4602 119.371 68.6141ZM86.4336 31.4509C86.4336 31.4509 88.8135 29.0657 90.5408 28.4886C88.3538 29.7766 83.0165 46.9163 92.0765 62.3048C92.0765 62.3048 93.1516 59.0732 94.802 57.5341C94.802 57.5341 97.2203 66.8827 106.088 70.576C106.088 70.576 106.241 66.6518 108.929 64.0743C108.929 64.0743 111.846 71.9992 119.37 74.1924C126.894 71.9997 129.812 64.0743 129.812 64.0743C132.499 66.6518 132.653 70.576 132.653 70.576C141.52 66.8827 143.938 57.5341 143.938 57.5341C145.589 59.0727 146.664 62.3048 146.664 62.3048C155.723 46.9163 150.386 29.7766 148.199 28.4886C149.927 29.0657 152.307 31.4509 152.307 31.4509C146.181 -10.4836 92.5593 -10.4836 86.4336 31.4509ZM119.37 24.0257C118.295 24.3335 117.451 25.0261 117.451 25.0261C117.067 23.2946 115.839 22.718 115.839 22.718C116.568 24.9492 115.724 26.4882 115.724 26.4882C113.958 28.1043 112.96 30.8357 112.96 30.8357C107.816 30.1816 103.824 32.8745 103.824 32.8745C109.659 33.9904 101.328 40.8763 101.328 40.8763C101.904 37.6063 99.2941 34.9903 99.2941 34.9903C99.9852 41.6844 96.0695 46.0698 96.0695 46.0698C92.8449 49.4553 92.2306 53.0717 92.2306 53.0717C85.5505 36.5289 99.6776 18.7553 99.6776 18.7553C95.3779 18.9092 94.3802 19.6787 94.3802 19.6787C97.3058 10.9401 114.225 -0.243848 119.37 6.90571C124.515 -0.243848 141.435 10.9401 144.361 19.6782C144.361 19.6782 143.363 18.9087 139.063 18.7548C139.063 18.7548 153.19 36.5284 146.511 53.0712C146.511 53.0712 145.897 49.4549 142.672 46.0693C142.672 46.0693 138.756 41.6834 139.447 34.9898C139.447 34.9898 136.837 37.6058 137.413 40.8759C137.413 40.8759 129.083 33.9894 134.918 32.874C134.918 32.874 130.925 30.1811 125.782 30.8352C125.782 30.8352 124.783 28.1038 123.018 26.4878C123.018 26.4878 122.173 24.9492 122.902 22.7175C122.902 22.7175 121.674 23.2946 121.29 25.0256C121.29 25.0256 120.446 24.333 119.371 24.0252L119.37 24.0257ZM115.013 31.8736C115.013 31.8736 115.512 28.2572 119.37 26.6417C123.228 28.2577 123.727 31.8736 123.727 31.8736C122.23 33.1814 122.306 35.3361 122.306 35.3361C125.838 31.4889 130.636 33.3358 130.636 33.3358C121.654 37.0291 120.924 46.8394 120.924 46.8394C120.924 48.263 119.37 49.0706 119.37 49.0706C119.37 49.0706 117.815 48.2625 117.815 46.8394C117.815 46.8394 117.086 37.0291 108.103 33.3358C108.103 33.3358 112.902 31.4893 116.433 35.3361C116.433 35.3361 116.51 33.1819 115.013 31.8736H115.013Z" fill="white"/>
<path fill-rule="evenodd" clip-rule="evenodd" d="M110.944 28.8339C108.512 25.672 114.032 25.5316 113.439 21.4857C113.439 21.4857 112.864 23.8708 110.676 22.7554C110.676 22.7554 107.681 20.9085 107.336 19.9855C107.336 19.9855 107.797 22.0244 108.411 22.563C108.411 22.563 104.956 19.9855 102.269 19.8701C102.269 19.8701 100.733 24.41 104.265 26.0255C104.265 26.0255 102.893 24.5865 103.689 22.4861C103.779 22.3067 103.868 22.1273 103.958 21.9474C103.958 21.9474 106.722 24.5249 109.255 24.448C109.255 24.448 108.449 26.2564 105.301 26.2564C105.301 26.2564 106.991 27.2183 109.447 26.5257C109.611 27.998 109.832 27.8118 110.945 28.8339" fill="white"/>
<path fill-rule="evenodd" clip-rule="evenodd" d="M127.796 28.8339C130.229 25.672 124.709 25.5316 125.301 21.4857C125.301 21.4857 125.877 23.8708 128.065 22.7554C128.065 22.7554 131.059 20.9085 131.405 19.9855C131.405 19.9855 130.944 22.0244 130.33 22.563C130.33 22.563 133.785 19.9855 136.472 19.8701C136.472 19.8701 138.007 24.41 134.476 26.0255C134.476 26.0255 135.848 24.5865 135.052 22.4861C134.962 22.3067 134.873 22.1273 134.783 21.9474C134.783 21.9474 132.019 24.5249 129.486 24.448C129.486 24.448 130.292 26.2564 133.44 26.2564C133.44 26.2564 131.75 27.2183 129.294 26.5257C129.13 27.998 128.909 27.8118 127.796 28.8339Z" fill="white"/>
</svg>
