<svg width="59" height="95" viewBox="0 0 59 95" fill="none" xmlns="http://www.w3.org/2000/svg">
<path fill-rule="evenodd" clip-rule="evenodd" d="M28.1107 62.4776L28.1107 6.24805L31.8594 6.24805L31.8594 62.4776L28.1107 62.4776Z" fill="white"/>
<path fill-rule="evenodd" clip-rule="evenodd" d="M28.1107 91.2173L28.1107 73.7236L31.8594 73.7236L31.8594 91.2173L28.1107 91.2173Z" fill="white"/>
<path fill-rule="evenodd" clip-rule="evenodd" d="M31.224 74.2205C30.6222 74.6235 29.9017 74.8541 29.1386 74.8541H29.1267C28.3629 74.8541 27.6419 74.6231 27.0398 74.2195L13.2265 66.0598L29.1361 88.4884L45.0657 66.0529L31.224 74.2205ZM29.1327 71.1019L0 53.8929L29.1346 94.9655L58.2969 53.8929L29.1327 71.1019ZM0.435259 48.3651L29.5778 65.5935L58.7203 48.381L29.5818 0L0.435259 48.3651ZM5.59724 47.0621L29.5787 61.2393L53.5584 47.0761L29.5808 7.26423L5.59724 47.0621Z" fill="white"/>
</svg>
