<svg width="103" height="85" viewBox="0 0 103 85" fill="none" xmlns="http://www.w3.org/2000/svg">
<path d="M15.1536 79.3439H2.52869C2.12337 79.3435 1.73474 79.1824 1.44813 78.8959C1.16153 78.6094 1.00035 78.2209 1 77.8157V50.2978C1.00035 49.8923 1.16139 49.5034 1.44789 49.2162C1.73438 48.9291 2.123 48.7671 2.52869 48.7657H15.3971C38.4881 48.7657 42.4419 51.0823 45.9275 53.1287C48.6825 54.7465 51.0588 56.1442 65.1402 55.9054C67.0638 55.867 68.9262 56.582 70.3297 57.8977C70.6805 58.251 70.9866 58.6461 71.2409 59.0741C75.4153 57.8358 79.5021 56.3194 83.4737 54.5351C88.7041 52.2907 91.8558 50.9385 93.925 52.5154C94.5496 52.9405 95.0622 53.51 95.4195 54.1755C95.7767 54.841 95.9679 55.5829 95.9769 56.3381C95.9685 56.6889 95.9236 57.0379 95.8431 57.3794C97.62 56.924 98.9634 57.0009 100.095 57.9519C100.705 58.4042 101.196 58.997 101.527 59.6797C101.859 60.3625 102.02 61.1151 101.998 61.8736C101.854 64.9024 98.6349 67.2057 98.2689 67.4625C81.82 80.4975 62.7605 83.9999 47.0226 83.9999C36.2288 84.0175 25.491 82.4487 15.1536 79.3439ZM16.9298 76.6982C23.9284 78.8169 65.1495 89.8061 96.4466 65.0014C97.1363 64.5192 98.8858 63.0185 98.94 61.7197C98.9533 61.4134 98.8858 60.9313 98.1285 60.2906C97.4655 59.7362 94.5031 60.9935 91.3714 62.3236C83.6677 65.7581 75.6055 68.325 67.3338 69.9771C64.7996 70.9281 61.2331 71.4109 56.6611 71.4109C52.0885 71.3622 47.5237 71.0218 42.9945 70.3917C42.5985 70.3322 42.2415 70.1201 42 69.8008C41.7585 69.4815 41.6517 69.0803 41.7024 68.6832C41.7531 68.2861 41.9574 67.9247 42.2714 67.6763C42.5854 67.4278 42.9843 67.3122 43.3826 67.3541C57.1936 69.1438 63.5017 68.1874 66.3651 67.0746L66.3919 67.0699L66.4501 67.0425C69.1556 65.9611 69.2412 64.5861 69.2686 64.1353C69.381 62.2829 69.0117 60.9079 68.1587 60.0518C67.3585 59.3429 66.3245 58.9544 65.2552 58.9611C50.2486 59.2226 47.5304 57.6175 44.374 55.7657C41.3033 53.9674 37.8264 51.9249 16.9272 51.8306L16.9298 76.6982ZM4.05671 76.2876H13.8644V51.8266H4.05671V76.2876ZM84.6867 57.3473C80.6369 59.1624 76.4723 60.7097 72.2196 61.9792C72.3373 62.7549 72.3736 63.5407 72.328 64.3239C72.299 64.8219 72.2004 65.3133 72.035 65.7839C78.2457 64.206 84.3122 62.107 90.1699 59.5095C90.5485 59.3516 90.8871 59.2072 91.2403 59.0627C92.0023 58.3324 92.9088 57.2149 92.9175 56.304C92.9175 56.0024 92.8319 55.5336 92.0605 54.9524C91.9422 54.8904 91.8091 54.8622 91.6758 54.8709C90.4308 54.8729 87.1546 56.2873 84.6867 57.3473ZM32.18 24.7996C32.1817 20.0913 33.5799 15.4892 36.1978 11.5751C38.8157 7.6611 42.5358 4.61089 46.8877 2.81013C51.2396 1.00938 56.028 0.538938 60.6473 1.4583C65.2666 2.37765 69.5096 4.64552 72.8397 7.97518C76.1698 11.3048 78.4375 15.5468 79.3562 20.1646C80.2748 24.7825 79.8031 29.569 78.0008 33.919C76.1984 38.2689 73.1462 41.987 69.2302 44.6031C65.3142 47.2192 60.7101 48.6159 56.0001 48.6165C49.684 48.6091 43.6287 46.0972 39.163 41.6322C34.6974 37.1671 32.186 31.1134 32.18 24.7996ZM35.0661 24.7996C35.0665 28.938 36.2945 32.9835 38.5948 36.4243C40.8951 39.8651 44.1643 42.5468 47.9893 44.1304C51.8142 45.7139 56.0229 46.128 60.0833 45.3205C64.1437 44.513 67.8733 42.52 70.8007 39.5937C73.728 36.6673 75.7216 32.9389 76.5293 28.8799C77.3369 24.821 76.9225 20.6138 75.3383 16.7903C73.7541 12.9668 71.0713 9.69878 67.6291 7.39942C64.187 5.10006 60.1401 3.87265 56.0001 3.87238C50.4497 3.87822 45.1283 6.08492 41.2035 10.0083C37.2787 13.9316 35.0719 19.2511 35.0661 24.7996ZM54.8287 41.0219V37.763C52.9407 37.6746 51.1589 36.8647 49.8512 35.5006C48.586 34.0123 47.9395 32.0959 48.0449 30.1457H51.2013C51.1587 30.8072 51.2471 31.4706 51.4615 32.0979C51.6758 32.7252 52.0118 33.304 52.4503 33.8012C52.9201 34.2457 53.4764 34.5888 54.0846 34.809C54.6928 35.0292 55.3398 35.1219 55.9854 35.0813C57.2489 35.1538 58.4965 34.7716 59.5024 34.0039C59.9267 33.6457 60.2629 33.1947 60.4849 32.6858C60.707 32.177 60.8089 31.6239 60.7829 31.0693C60.7938 30.5761 60.7017 30.086 60.5123 29.6304C60.3229 29.1749 60.0404 28.7638 59.683 28.4236C58.5984 27.516 57.3312 26.852 55.9673 26.4768C53.5464 25.7376 51.7789 24.7733 50.6647 23.5837C49.5377 22.3481 48.9403 20.7199 49.0009 19.0488C48.9335 17.3648 49.5182 15.7197 50.6333 14.4557C51.8125 13.2157 53.4093 12.4561 55.1157 12.3236V8.58187H57.6579V12.341C58.5253 12.4263 59.367 12.6831 60.1342 13.0964C60.9014 13.5097 61.5788 14.0713 62.1269 14.7486C63.1907 16.0919 63.7227 17.9295 63.7232 20.2613H60.5862C60.6594 18.8887 60.2547 17.5331 59.4408 16.4252C59.0735 15.9616 58.6021 15.591 58.0647 15.3435C57.5274 15.096 56.9392 14.9786 56.348 15.0007C55.7861 14.9631 55.2223 15.037 54.6891 15.2181C54.1559 15.3992 53.6638 15.684 53.2411 16.0561C52.8681 16.4442 52.5794 16.9052 52.3932 17.4102C52.207 17.9153 52.1274 18.4533 52.1593 18.9906C52.1364 19.5082 52.2262 20.0245 52.4226 20.504C52.619 20.9834 52.9172 21.4145 53.2966 21.7674C54.4055 22.6392 55.6781 23.2799 57.0391 23.6513C58.4762 24.0759 59.8456 24.7028 61.106 25.5131C62.0068 26.1094 62.7454 26.9199 63.2555 27.8719C63.7358 28.8546 63.9739 29.9378 63.95 31.0312C63.9886 31.8824 63.8548 32.7327 63.5566 33.5309C63.2584 34.3292 62.8019 35.0589 62.2146 35.6765C60.8948 36.9257 59.1738 37.6652 57.3589 37.763V41.0219H54.8287Z" fill="white" stroke="white" stroke-miterlimit="10"/>
</svg>
