<svg width="87" height="97" viewBox="0 0 87 97" fill="none" xmlns="http://www.w3.org/2000/svg">
<path d="M34.0502 21.8385C32.9668 21.6899 32.9152 21.6404 33.4311 21.5909C34.4113 21.4424 36.6811 21.6404 38.2804 21.987C41.9947 22.8288 45.3479 25.0075 48.9074 28.8202L49.836 29.86L51.1773 29.662C56.9035 28.7707 62.7845 29.4639 67.6854 31.6426C69.0267 32.2368 71.1418 33.4252 71.3997 33.7222C71.5029 33.8213 71.6576 34.465 71.7608 35.1087C72.1219 37.4359 71.9672 39.169 71.1933 40.5059C70.7806 41.2486 70.7806 41.4467 71.0386 42.0904C71.2449 42.5856 71.864 42.9322 72.4314 42.9322C73.6695 42.9322 74.9592 41.0506 75.5783 38.4262L75.8362 37.3864L76.3005 37.8816C78.9315 40.704 80.995 44.6157 81.3045 47.3886L81.4077 48.1313L80.9434 47.4876C80.1696 46.3487 79.4474 45.606 78.4672 44.9623C76.7132 43.8234 74.8561 43.4768 69.9552 43.2293C65.5187 42.9817 62.9909 42.6351 60.5147 41.8428C56.2845 40.5059 54.1178 38.7728 49.1138 32.3853C46.8955 29.5629 45.5026 28.028 44.1098 26.7405C41.0661 23.9182 38.0224 22.4327 34.0502 21.8385Z" fill="white"/>
<path d="M72.483 28.1275C72.5861 26.2459 72.8441 25.008 73.4116 23.8691C73.6179 23.4235 73.8243 23.0273 73.8758 23.0273C73.9274 23.0273 73.8243 23.374 73.6695 23.7701C73.2568 24.8594 73.2052 26.3944 73.4631 28.1275C73.8242 30.3557 73.979 30.6528 76.4552 33.079C77.5902 34.2179 78.9314 35.6538 79.4473 36.248L80.3243 37.3374L79.4473 36.5451C78.364 35.5548 75.8878 33.6732 75.3203 33.4256C74.9592 33.2276 74.9076 33.2276 74.6497 33.4751C74.4433 33.6732 74.3917 33.9703 74.3917 35.4063C74.3401 37.6345 74.0306 39.0209 73.2568 40.4568C72.8441 41.1996 72.7925 41.051 73.1536 40.2093C73.4116 39.5656 73.4631 39.2685 73.4631 37.1393C73.4631 32.8314 72.9473 31.7916 69.8004 30.0586C69.0266 29.6129 67.6853 28.9692 66.9115 28.6226C66.0861 28.276 65.467 27.9789 65.5186 27.9789C65.6218 27.8799 68.6655 28.7216 69.852 29.2168C71.6576 29.91 71.9671 29.9595 72.1734 29.91C72.3282 29.7615 72.4314 29.3653 72.483 28.1275Z" fill="white"/>
<path d="M36.1655 35.5021C33.9988 32.6302 32.606 28.1738 32.9155 24.8562L33.0187 23.8164L33.5345 23.9154C34.4631 24.064 36.0623 24.6582 36.8362 25.1038C38.8997 26.2922 39.8282 27.9262 40.7052 31.9865C40.9632 33.1749 41.3243 34.5613 41.4791 35.0069C41.737 35.7497 42.7172 37.4827 43.5426 38.5721C44.11 39.3643 43.7489 39.7604 42.4592 39.6614C40.4989 39.4633 37.8679 37.7303 36.1655 35.5021Z" fill="white"/>
<path d="M69.8521 57.0421C59.6378 53.0808 56.0266 49.6643 56.0266 43.8709C56.0266 43.0292 56.0782 42.3359 56.0782 42.3359C56.1298 42.3359 56.4909 42.633 56.9552 42.9796C59.0187 44.5641 61.3401 45.2574 67.7886 46.1486C71.5545 46.6933 73.7212 47.0894 75.6815 47.7331C81.9237 49.7138 85.7927 53.774 86.7213 59.2703C86.9793 60.8548 86.8245 63.8752 86.4118 65.4597C86.0507 66.6976 85.0189 68.9754 84.761 69.0249C84.7094 69.0249 84.6062 68.7773 84.6062 68.3812C84.503 66.3015 83.4197 64.3209 81.6141 62.7859C79.4474 61.0033 76.6617 59.6664 69.8521 57.0421Z" fill="white"/>
<path d="M62.6297 58.6749C62.5266 57.9322 62.2686 56.9914 62.1138 56.5953L61.8559 55.8525L62.3202 56.3972C62.9908 57.1399 63.5067 58.0312 63.971 59.2691C64.3321 60.2099 64.3321 60.507 64.3321 62.042C64.3321 63.5275 64.2805 63.8741 63.971 64.7158C63.4551 66.0528 62.8361 66.9936 61.8043 68.0334C59.9472 69.8655 57.5225 70.8558 54.0662 71.3014C53.4471 71.3509 51.6931 71.4995 50.1455 71.5985C46.2764 71.7966 43.697 72.1927 41.3756 72.9849C41.0661 73.084 40.7565 73.183 40.7049 73.1335C40.6018 73.0345 42.201 72.1432 43.4907 71.549C45.2963 70.7072 47.1534 70.2616 51.2288 69.5684C53.2408 69.2713 55.3043 68.8752 55.8201 68.6771C60.9273 67.1421 63.4551 63.3294 62.6297 58.6749Z" fill="white"/>
<path d="M67.3241 66.6495C65.9828 63.8271 65.6733 61.1533 66.3955 58.628C66.4987 58.3804 66.6019 58.1328 66.7051 58.1328C66.8082 58.1328 67.1178 58.2814 67.4273 58.4794C68.0463 58.8755 69.336 59.5688 72.6376 61.3018C76.8162 63.4805 79.1893 65.164 80.8401 67.0951C82.2845 68.7787 83.1615 70.7098 83.5742 73.0865C83.8322 74.4235 83.6774 77.642 83.3163 78.9789C82.1814 83.1877 79.602 86.5548 75.8361 88.4859C75.2686 88.783 74.8043 88.9811 74.7527 88.9811C74.7011 88.9811 74.9075 88.4859 75.217 87.8917C76.4551 85.3664 76.6099 82.9402 75.6813 80.2168C75.1139 78.5333 73.9273 76.5031 71.5543 73.0865C68.717 69.1253 68.0463 68.0855 67.3241 66.6495Z" fill="white"/>
<path d="M28.8914 81.7992C32.7089 78.7292 37.4034 76.5505 41.7368 75.8573C43.594 75.5602 46.6892 75.6593 48.3916 76.1049C51.1258 76.7981 53.602 78.2836 54.8917 80.1157C56.1298 81.8982 56.6972 83.4332 57.2647 86.8498C57.4711 88.1867 57.729 89.5732 57.7806 89.8703C58.1933 91.6528 59.0187 93.0393 60.0504 93.782C61.6497 94.9208 64.4354 94.9704 67.1695 93.9801C67.6338 93.8315 68.0465 93.683 68.0465 93.7325C68.1497 93.8315 66.7568 94.7228 65.8283 95.1684C64.5386 95.8121 63.5068 96.0102 62.1139 96.0102C59.6377 96.0102 57.5226 94.7723 55.8202 92.2965C55.4591 91.8014 54.7369 90.3654 54.1178 89.0285C52.3123 85.0177 51.3837 83.8293 49.2686 82.4924C47.4114 81.3536 45.0384 81.106 43.2328 81.9477C40.8598 83.0371 40.2407 85.9585 41.8916 87.7411C42.5622 88.4838 43.8003 89.078 44.8321 89.2265C46.7408 89.4741 48.3916 88.0382 48.3916 86.2061C48.3916 85.0177 47.9273 84.3245 46.6892 83.7798C45.0384 83.0866 43.2328 83.8789 43.2844 85.4138C43.2844 86.0575 43.594 86.4537 44.2646 86.7508C44.6773 86.9488 44.6773 86.9488 44.3678 86.8993C42.8717 86.6022 42.5106 84.8197 43.6971 83.6808C45.1416 82.2944 48.1853 82.8885 49.217 84.8197C49.6297 85.6119 49.6813 87.1964 49.3202 88.1867C48.4432 90.3654 45.967 91.5043 43.4392 90.8606C41.7368 90.4149 41.0146 89.9693 38.9511 87.9391C35.3399 84.374 33.947 83.6808 28.7883 82.9381L27.8081 82.7895L28.8914 81.7992Z" fill="white"/>
<path fill-rule="evenodd" clip-rule="evenodd" d="M1.75628 2.12917C13.7762 16.1421 32.2962 37.929 33.2248 39.1174C33.9986 40.1077 33.6891 41.0485 32.3994 41.7417C31.6772 42.1378 30.1811 42.5339 29.4589 42.5339C28.6335 42.5339 27.6533 42.1378 26.9827 41.4941C26.5184 41.0485 24.5065 38.2261 19.9667 31.4424C16.5104 26.2433 13.5699 21.9354 13.5183 21.8859C13.3119 21.7869 13.3119 21.7869 19.6056 32.5813C23.5779 39.3649 24.8676 41.7912 24.8676 42.0883C24.8676 42.732 24.6612 43.0786 23.8358 43.9699C22.443 45.4554 21.8239 47.1389 21.3596 50.6545C20.8437 54.5662 19.4509 57.3391 15.4786 62.0431C13.1572 64.816 12.7961 65.3111 12.2286 66.45C11.5064 67.8364 11.3 68.6287 11.1968 70.4112C11.0937 72.2928 11.3 73.4812 11.8675 75.2638C12.3834 76.8483 12.9508 77.8881 14.3437 79.9182C15.5302 81.7008 16.2524 83.0377 16.2524 83.5329C16.2524 83.929 16.3556 83.929 18.2128 83.5329C22.6493 82.5426 26.312 80.859 28.324 78.7794C29.5621 77.492 29.8716 76.7988 29.8716 75.0162C29.8716 73.8773 29.82 73.6298 29.5105 72.9365C28.9946 71.8472 28.0144 70.9559 25.8993 69.5695C23.1136 67.7374 21.9271 66.2519 21.6176 64.2713C21.3596 62.5878 21.6691 61.4489 23.2168 58.3294C24.816 55.1109 25.2287 53.774 25.4866 50.506C25.6414 48.4263 25.8993 47.5845 26.5184 46.9408C27.189 46.2476 27.7565 46 29.3557 45.802C31.9867 45.4554 33.6891 44.8117 35.0304 43.5738C36.2169 42.5339 36.7328 41.4941 36.7843 39.9591L36.8359 38.8203L36.1653 38.127C33.7407 35.4532 0.157058 0 0.00229465 0C-0.0492931 0 0.776111 0.940797 1.75628 2.12917ZM17.5937 72.5404C18.1612 71.5996 17.8516 70.4112 16.9231 69.8171C16.0461 69.2724 14.7048 69.52 14.7048 70.2627C14.7048 70.4608 14.808 70.6588 15.1175 70.7579C15.5818 71.0054 15.6334 71.253 15.2723 71.7977C14.9111 72.3424 14.9111 72.8375 15.3754 73.1841C16.0977 73.7288 17.0778 73.4317 17.5937 72.5404Z" fill="white"/>
<path fill-rule="evenodd" clip-rule="evenodd" d="M38.4866 46.4951C37.2485 46.8417 36.062 48.1291 35.7009 49.4165C35.4945 50.2087 35.5977 51.6447 35.9588 52.0903C36.5263 52.7835 37.0422 52.9816 38.4866 52.9816C41.3239 52.9816 43.7486 51.7932 44.0065 50.3573C44.2644 49.1689 43.1811 47.5349 41.6851 46.7922C40.9112 46.396 39.312 46.2475 38.4866 46.4951ZM41.7882 48.9708C42.2009 48.3767 42.0462 47.733 41.2723 47.2873C39.8795 46.4455 37.7644 47.1388 37.7644 48.4262C37.7644 49.0699 38.8477 49.7631 39.8795 49.7631C40.5501 49.7631 41.4787 49.367 41.7882 48.9708Z" fill="white"/>
</svg>
