<svg width="88" height="76" viewBox="0 0 88 76" fill="none" xmlns="http://www.w3.org/2000/svg">
<path d="M86.591 12.9819C86.1847 12.5719 85.7008 12.2467 85.1677 12.0253C84.6345 11.8039 84.0626 11.6907 83.4853 11.6923H80.3846V4.38462C80.3833 3.22214 79.9209 2.10766 79.099 1.28567C78.277 0.463674 77.1625 0.00130558 76 0H12.903C9.48093 4.84518e-05 6.19903 1.35948 3.77926 3.77926C1.35948 6.19903 4.84518e-05 9.48093 0 12.903V63.097C4.84518e-05 66.5191 1.35948 69.801 3.77926 72.2207C6.19903 74.6405 9.48093 75.9999 12.903 76H83.3126C84.4724 75.9977 85.5842 75.537 86.4056 74.7183C87.227 73.8995 87.6913 72.7892 87.6973 71.6294L87.8697 16.0919C87.8733 15.5146 87.7622 14.9424 87.5426 14.4085C87.3231 13.8746 86.9997 13.3897 86.591 12.9819ZM81.8558 70.1538H12.903C11.0314 70.1538 9.23648 69.4104 7.91306 68.0869C6.58964 66.7635 5.84615 64.9686 5.84615 63.097V12.903C5.84615 11.0314 6.58964 9.23648 7.91306 7.91306C9.23648 6.58964 11.0314 5.84615 12.903 5.84615H74.5385V11.6923H13.1538V17.5385H82.0192L81.8558 70.1538Z" fill="black"/>
<path d="M68.6924 39.4619H74.5385V45.3081H68.6924V39.4619Z" fill="black"/>
</svg>
